# xmcd
#
# Track frame offsets:
#	150
#	21311
#	37539
#	57583
#	77476
#	94145
#	109413
#	126981
#	145644
#	163729
#	181940
#	202948
#	219121
#	239233
#	253597
#	276149
#
# Disc length: 3885 seconds
#
# Revision: 1
# Processed by: cddbd v1.5PL3 Copyright (c) Steve Scherf et al.
# Submitted via: EasyCDDAExtractor 7.0.5.1
#
DISCID=de0f2b10
DTITLE=Guilherme and Santiago - 2004
DYEAR=2004
DGENRE=Country - Sertanejo
TTITLE0=O Nosso Amor
TTITLE1=Acorda Pra Vida
TTITLE2=Azul
TTITLE3=Bebo e Choro
TTITLE4=No Limite
TTITLE5=Do Outro Lado da Cidade
TTITLE6=A Outra
TTITLE7=Domínio do Amor
TTITLE8=Som e Imagem
TTITLE9=Hábito
TTITLE10=Tempestade de Paixão
TTITLE11=O Casado e o Solteiro
TTITLE12=Número Dois
TTITLE13=Peão Não Chora
TTITLE14=Me Esqueça
TTITLE15=Pop Star
EXTD=
EXTT0=
EXTT1=
EXTT2=
EXTT3=
EXTT4=
EXTT5=
EXTT6=
EXTT7=
EXTT8=
EXTT9=
EXTT10=
EXTT11=
EXTT12=
EXTT13=
EXTT14=
EXTT15=
PLAYORDER=
